<svg xmlns="http://www.w3.org/2000/svg" xmlns:xlink="http://www.w3.org/1999/xlink" width="300" zoomAndPan="magnify" viewBox="0 0 224.87999 299.999988" height="400" preserveAspectRatio="xMidYMid meet" version="1.0"><defs><clipPath id="id1"><path d="M 167 120 L 224.761719 120 L 224.761719 176.9375 L 167 176.9375 Z M 167 120 " clip-rule="nonzero"/></clipPath></defs><path fill="#849781" d="M 25.027344 160.351562 L 25.027344 168.429688 L -0.046875 168.429688 L -0.046875 128.472656 L 8.75 128.472656 L 8.75 160.351562 Z M 28.914062 141.332031 L 37.367188 141.332031 L 37.367188 168.429688 L 28.914062 168.429688 Z M 33.140625 127.875 C 33.460938 127.875 33.78125 127.90625 34.097656 127.96875 C 34.410156 128.03125 34.71875 128.121094 35.015625 128.246094 C 35.3125 128.367188 35.59375 128.515625 35.863281 128.695312 C 36.132812 128.875 36.378906 129.074219 36.605469 129.300781 C 36.832031 129.527344 37.035156 129.773438 37.214844 130.042969 C 37.394531 130.308594 37.546875 130.589844 37.667969 130.882812 C 37.792969 131.179688 37.886719 131.484375 37.949219 131.800781 C 38.011719 132.113281 38.042969 132.429688 38.042969 132.75 C 38.042969 135.449219 35.847656 137.628906 33.140625 137.628906 C 30.433594 137.628906 28.238281 135.445312 28.238281 132.75 C 28.238281 132.429688 28.269531 132.113281 28.332031 131.800781 C 28.394531 131.484375 28.488281 131.179688 28.613281 130.886719 C 28.734375 130.589844 28.886719 130.308594 29.066406 130.042969 C 29.246094 129.777344 29.449219 129.53125 29.675781 129.304688 C 29.902344 129.078125 30.148438 128.875 30.417969 128.695312 C 30.683594 128.519531 30.96875 128.367188 31.265625 128.246094 C 31.5625 128.121094 31.867188 128.03125 32.183594 127.96875 C 32.5 127.90625 32.816406 127.875 33.140625 127.875 M 90.71875 141.328125 L 101.066406 141.328125 L 89.972656 153.855469 L 100.835938 168.429688 L 90.21875 168.429688 L 81.25 155.042969 L 81.140625 155.042969 L 81.140625 168.429688 L 72.691406 168.429688 L 72.691406 128.472656 L 81.140625 128.472656 L 81.140625 152.351562 Z M 42.039062 141.34375 L 50.152344 141.34375 L 50.152344 145.058594 L 50.265625 145.058594 C 51.390625 142.925781 54.152344 140.683594 58.265625 140.683594 C 66.832031 140.683594 68.410156 146.292969 68.410156 153.582031 L 68.410156 168.425781 L 59.957031 168.425781 L 59.957031 155.253906 C 59.957031 152.113281 59.898438 148.078125 55.558594 148.078125 C 51.167969 148.078125 50.492188 151.496094 50.492188 155.03125 L 50.492188 168.417969 L 42.039062 168.417969 Z M 118.871094 151.734375 C 118.925781 148.929688 116.726562 146.574219 113.683594 146.574219 C 109.964844 146.574219 107.933594 149.097656 107.710938 151.734375 Z M 126.023438 163.730469 C 123.320312 167.152344 118.871094 169.117188 114.464844 169.117188 C 106.011719 169.117188 99.25 163.503906 99.25 154.8125 C 99.25 146.121094 106.011719 140.523438 114.464844 140.523438 C 122.359375 140.523438 127.3125 146.128906 127.3125 154.8125 L 127.3125 157.449219 L 107.703125 157.449219 C 108.375 160.644531 110.800781 162.71875 114.070312 162.71875 C 116.832031 162.71875 118.691406 161.328125 120.097656 159.410156 Z M 144.921875 147.890625 C 140.699219 147.890625 138.164062 150.695312 138.164062 154.785156 C 138.164062 158.882812 140.699219 161.683594 144.921875 161.683594 C 149.152344 161.683594 151.6875 158.882812 151.6875 154.785156 C 151.6875 150.695312 149.152344 147.890625 144.921875 147.890625 M 159.464844 168.414062 L 151.6875 168.414062 L 151.6875 164.824219 L 151.578125 164.824219 C 150.277344 166.785156 147.011719 169.085938 143.179688 169.085938 C 135.0625 169.085938 129.710938 163.257812 129.710938 155.011719 C 129.710938 147.4375 134.445312 140.484375 142.21875 140.484375 C 145.714844 140.484375 148.984375 141.4375 150.890625 144.074219 L 151 144.074219 L 151 128.472656 L 159.457031 128.472656 Z M 159.464844 168.414062 " fill-opacity="1" fill-rule="nonzero"/><g clip-path="url(#id1)"><path fill="#000000" d="M 220.707031 120.082031 L 172.125 120.082031 C 169.796875 120.082031 167.917969 121.914062 167.917969 124.171875 L 167.917969 172.726562 C 167.917969 174.988281 169.804688 176.820312 172.125 176.820312 L 220.707031 176.820312 C 223.03125 176.820312 224.925781 174.984375 224.925781 172.726562 L 224.925781 124.171875 C 224.925781 121.914062 223.03125 120.082031 220.703125 120.082031 Z M 220.707031 120.082031 " fill-opacity="1" fill-rule="nonzero"/></g><path fill="#ffffff" d="M 176.375 141.355469 L 184.832031 141.355469 L 184.832031 168.429688 L 176.375 168.429688 Z M 180.605469 127.894531 C 180.925781 127.894531 181.246094 127.925781 181.558594 127.988281 C 181.875 128.050781 182.179688 128.144531 182.480469 128.265625 C 182.777344 128.390625 183.058594 128.539062 183.324219 128.71875 C 183.59375 128.894531 183.839844 129.097656 184.066406 129.324219 C 184.296875 129.550781 184.5 129.796875 184.675781 130.0625 C 184.855469 130.328125 185.007812 130.609375 185.128906 130.90625 C 185.253906 131.203125 185.347656 131.507812 185.410156 131.820312 C 185.472656 132.136719 185.503906 132.453125 185.503906 132.773438 C 185.503906 133.09375 185.472656 133.410156 185.410156 133.722656 C 185.347656 134.039062 185.253906 134.34375 185.128906 134.640625 C 185.007812 134.933594 184.855469 135.214844 184.675781 135.480469 C 184.5 135.75 184.296875 135.996094 184.070312 136.222656 C 183.839844 136.449219 183.59375 136.648438 183.324219 136.828125 C 183.058594 137.007812 182.777344 137.15625 182.480469 137.28125 C 182.183594 137.402344 181.875 137.496094 181.558594 137.558594 C 181.246094 137.621094 180.925781 137.652344 180.605469 137.652344 C 180.28125 137.652344 179.964844 137.621094 179.648438 137.558594 C 179.332031 137.496094 179.023438 137.402344 178.726562 137.28125 C 178.429688 137.15625 178.148438 137.007812 177.878906 136.828125 C 177.613281 136.652344 177.363281 136.449219 177.136719 136.222656 C 176.910156 135.996094 176.707031 135.75 176.527344 135.484375 C 176.347656 135.21875 176.195312 134.9375 176.074219 134.640625 C 175.949219 134.34375 175.855469 134.039062 175.792969 133.722656 C 175.730469 133.410156 175.699219 133.09375 175.699219 132.773438 C 175.699219 132.453125 175.730469 132.136719 175.792969 131.820312 C 175.859375 131.507812 175.949219 131.203125 176.074219 130.90625 C 176.199219 130.609375 176.347656 130.328125 176.527344 130.0625 C 176.707031 129.796875 176.910156 129.550781 177.136719 129.324219 C 177.363281 129.097656 177.613281 128.894531 177.878906 128.714844 C 178.148438 128.539062 178.429688 128.386719 178.726562 128.265625 C 179.027344 128.144531 179.332031 128.050781 179.648438 127.988281 C 179.964844 127.925781 180.28125 127.894531 180.605469 127.894531 M 190.132812 141.355469 L 198.242188 141.355469 L 198.242188 145.042969 L 198.351562 145.042969 C 199.472656 142.914062 202.242188 140.671875 206.351562 140.671875 C 214.914062 140.671875 216.496094 146.277344 216.496094 153.570312 L 216.496094 168.421875 L 208.039062 168.421875 L 208.039062 155.242188 C 208.039062 152.105469 207.980469 148.066406 203.644531 148.066406 C 199.246094 148.066406 198.570312 151.484375 198.570312 155.015625 L 198.570312 168.410156 L 190.125 168.410156 L 190.125 141.335938 Z M 190.132812 141.355469 " fill-opacity="1" fill-rule="nonzero"/></svg>