<svg xmlns="http://www.w3.org/2000/svg" xmlns:xlink="http://www.w3.org/1999/xlink" width="300" zoomAndPan="magnify" viewBox="0 0 224.87999 299.999988" height="400" preserveAspectRatio="xMidYMid meet" version="1.0"><defs><clipPath id="id1"><path d="M 0 65 L 173 65 L 173 268.140625 L 0 268.140625 Z M 0 65 " clip-rule="nonzero"/></clipPath><clipPath id="id2"><path d="M 53 65 L 224.761719 65 L 224.761719 268.140625 L 53 268.140625 Z M 53 65 " clip-rule="nonzero"/></clipPath></defs><g clip-path="url(#id1)"><path fill="#000000" d="M 89.34375 244.980469 C 83.035156 246.324219 76.359375 246.992188 69.320312 246.992188 L 16.113281 246.992188 L -0.00390625 210.148438 L -0.00390625 264.175781 L 1.671875 268.089844 L 1.671875 268.09375 L 69.339844 268.09375 C 84.5625 268.09375 98.53125 265.480469 111.25 260.257812 C 111.929688 259.976562 112.609375 259.6875 113.277344 259.398438 C 104.417969 255.5625 96.441406 250.757812 89.34375 244.980469 Z M 172.9375 166.277344 C 172.9375 180.589844 170.421875 193.980469 165.410156 206.453125 C 160.398438 218.925781 153.296875 229.707031 144.109375 238.792969 C 141.910156 240.96875 139.613281 243.03125 137.214844 244.980469 C 132.527344 243.988281 128.042969 242.625 123.761719 240.890625 C 120.058594 239.394531 116.5625 237.679688 113.277344 235.746094 C 118.90625 232.4375 123.917969 228.492188 128.320312 223.910156 C 135.296875 216.652344 140.695312 208.179688 144.503906 198.507812 C 148.320312 188.832031 150.226562 178.28125 150.226562 166.859375 C 150.226562 155.632812 148.320312 145.085938 144.503906 135.214844 C 140.695312 125.335938 135.296875 116.773438 128.320312 109.515625 C 123.917969 104.933594 118.90625 100.96875 113.277344 97.625 C 109.996094 95.664062 106.496094 93.921875 102.792969 92.386719 C 98.417969 90.570312 93.832031 89.152344 89.03125 88.132812 C 82.816406 86.808594 76.246094 86.140625 69.320312 86.140625 L 23.558594 86.140625 L 23.558594 146.292969 L 1.671875 146.292969 L 1.671875 65.042969 L 69.339844 65.042969 C 84.5625 65.042969 98.53125 67.605469 111.25 72.730469 C 111.929688 73.003906 112.609375 73.289062 113.277344 73.578125 C 122.269531 77.402344 130.351562 82.253906 137.523438 88.132812 C 139.8125 89.996094 142.007812 91.976562 144.109375 94.050781 C 153.296875 103.140625 160.398438 113.871094 165.410156 126.25 C 170.421875 138.628906 172.9375 151.96875 172.9375 166.277344 " fill-opacity="1" fill-rule="nonzero"/></g><g clip-path="url(#id2)"><path fill="#ffffff" d="M 157.214844 65.042969 C 141.992188 65.042969 128.023438 67.605469 115.304688 72.730469 C 114.625 73.003906 113.949219 73.289062 113.277344 73.578125 C 122.269531 77.402344 130.351562 82.253906 137.523438 88.132812 C 143.738281 86.808594 150.308594 86.140625 157.238281 86.140625 L 202.996094 86.140625 L 202.996094 146.292969 L 224.882812 146.292969 L 224.882812 65.042969 Z M 208.125 246.992188 L 208.125 268.09375 L 157.214844 268.09375 C 141.992188 268.09375 128.023438 265.480469 115.304688 260.257812 C 114.625 259.976562 113.949219 259.6875 113.277344 259.398438 C 104.417969 255.5625 96.441406 250.757812 89.34375 244.980469 C 86.941406 243.03125 84.644531 240.96875 82.445312 238.792969 C 73.257812 229.707031 66.160156 218.925781 61.144531 206.453125 C 56.132812 193.980469 53.621094 180.589844 53.621094 166.277344 C 53.621094 151.96875 56.132812 138.628906 61.144531 126.25 C 66.160156 113.871094 73.257812 103.140625 82.445312 94.050781 C 84.546875 91.976562 86.742188 89.996094 89.03125 88.132812 C 93.832031 89.152344 98.417969 90.570312 102.792969 92.386719 C 106.496094 93.921875 109.996094 95.664062 113.277344 97.625 C 107.652344 100.96875 102.640625 104.933594 98.234375 109.515625 C 91.253906 116.773438 85.867188 125.335938 82.050781 135.214844 C 78.234375 145.085938 76.328125 155.632812 76.328125 166.859375 C 76.328125 178.28125 78.234375 188.832031 82.050781 198.507812 C 85.867188 208.179688 91.253906 216.652344 98.234375 223.910156 C 102.640625 228.492188 107.652344 232.4375 113.277344 235.746094 C 116.5625 237.679688 120.058594 239.394531 123.761719 240.890625 C 128.042969 242.625 132.527344 243.988281 137.214844 244.980469 C 143.519531 246.324219 150.195312 246.992188 157.238281 246.992188 L 208.125 246.992188 " fill-opacity="1" fill-rule="nonzero"/></g></svg>