<svg xmlns="http://www.w3.org/2000/svg" xmlns:xlink="http://www.w3.org/1999/xlink" width="400" zoomAndPan="magnify" viewBox="0 0 300 299.999988" height="400" preserveAspectRatio="xMidYMid meet" version="1.0"><path fill="#3a4d6c" d="M 134.941406 223.824219 C 134.535156 223.410156 133.832031 223.589844 133.679688 224.152344 L 127.871094 245.730469 C 127.585938 246.757812 128.601562 247.660156 129.589844 247.253906 L 148.609375 239.480469 C 149.109375 239.28125 149.242188 238.652344 148.875 238.265625 L 134.941406 223.824219 " fill-opacity="1" fill-rule="nonzero"/><path fill="#3a4d6c" d="M 293.222656 123.558594 C 292.859375 123.511719 292.480469 123.503906 292.078125 123.550781 L 268.253906 125.769531 L 82.863281 151.8125 C 80.238281 152.179688 79.136719 155.375 80.972656 157.277344 L 107.109375 184.355469 L 113.664062 191.132812 L 117.40625 239.226562 C 117.5 240.390625 119.144531 240.550781 119.445312 239.414062 L 128.339844 206.375 L 128.441406 205.996094 L 230.898438 157.152344 C 232.128906 156.570312 233.597656 157.070312 234.214844 158.28125 C 234.828125 159.476562 234.394531 160.941406 233.230469 161.609375 L 138.652344 215.878906 L 138.277344 217.269531 L 188.371094 268.578125 C 189.753906 270.015625 192.09375 269.875 193.289062 268.285156 L 295.171875 133.703125 L 296.65625 131.75 C 299.101562 128.496094 296.976562 124.011719 293.222656 123.558594 " fill-opacity="1" fill-rule="nonzero"/><path fill="#3a4d6c" d="M 103.980469 245.15625 C 101.195312 245.597656 98.027344 245.824219 94.539062 245.824219 C 94.398438 245.824219 94.257812 245.804688 94.125 245.824219 C 91.691406 245.824219 89.726562 247.789062 89.707031 250.214844 C 89.695312 252.652344 91.660156 254.636719 94.097656 254.644531 C 94.246094 254.644531 94.386719 254.644531 94.539062 254.644531 C 98.496094 254.644531 102.136719 254.390625 105.371094 253.863281 C 107.777344 253.480469 109.414062 251.210938 109.027344 248.804688 C 108.640625 246.398438 106.367188 244.773438 103.980469 245.15625 " fill-opacity="1" fill-rule="nonzero"/><path fill="#3a4d6c" d="M 36.734375 94.46875 C 37.890625 94.46875 39.046875 94.019531 39.914062 93.117188 C 44.285156 88.585938 49.210938 84.230469 54.550781 80.1875 C 56.496094 78.722656 56.875 75.949219 55.40625 74.011719 C 53.929688 72.066406 51.167969 71.6875 49.21875 73.15625 C 43.523438 77.472656 38.25 82.125 33.558594 86.996094 C 31.875 88.742188 31.921875 91.535156 33.679688 93.230469 C 34.535156 94.054688 35.632812 94.46875 36.734375 94.46875 " fill-opacity="1" fill-rule="nonzero"/><path fill="#3a4d6c" d="M 68.785156 69.96875 C 69.527344 69.96875 70.28125 69.78125 70.976562 69.386719 C 76.449219 66.246094 82.402344 63.246094 88.632812 60.460938 C 90.863281 59.476562 91.867188 56.863281 90.871094 54.644531 C 89.882812 52.414062 87.269531 51.417969 85.050781 52.40625 C 78.535156 55.300781 72.320312 58.441406 66.585938 61.730469 C 64.472656 62.945312 63.746094 65.632812 64.949219 67.75 C 65.769531 69.167969 67.253906 69.96875 68.785156 69.96875 " fill-opacity="1" fill-rule="nonzero"/><path fill="#3a4d6c" d="M 12.796875 127.601562 C 13.332031 127.828125 13.898438 127.933594 14.453125 127.933594 C 16.179688 127.933594 17.835938 126.898438 18.550781 125.214844 C 21.0625 119.292969 24.144531 113.574219 27.707031 108.226562 C 29.0625 106.195312 28.515625 103.457031 26.484375 102.105469 C 24.464844 100.761719 21.730469 101.296875 20.375 103.328125 C 16.5 109.128906 13.152344 115.332031 10.484375 121.640625 C 10.445312 121.71875 10.390625 121.847656 10.363281 121.925781 C 9.46875 124.160156 10.558594 126.683594 12.796875 127.601562 " fill-opacity="1" fill-rule="nonzero"/><path fill="#3a4d6c" d="M 105.660156 53.402344 C 106.152344 53.402344 106.648438 53.316406 107.128906 53.148438 C 113.117188 51.042969 119.519531 49.019531 126.175781 47.140625 C 128.519531 46.472656 129.882812 44.035156 129.222656 41.695312 C 128.554688 39.34375 126.109375 37.980469 123.78125 38.640625 C 116.945312 40.578125 110.363281 42.65625 104.203125 44.816406 C 101.902344 45.625 100.695312 48.144531 101.503906 50.449219 C 102.144531 52.265625 103.847656 53.402344 105.660156 53.402344 " fill-opacity="1" fill-rule="nonzero"/><path fill="#3a4d6c" d="M 39.199219 229.878906 C 33.867188 226.15625 29.183594 221.832031 25.300781 217.015625 C 23.769531 215.128906 20.996094 214.828125 19.097656 216.359375 C 17.207031 217.902344 16.90625 220.675781 18.4375 222.574219 C 22.847656 228.019531 28.132812 232.90625 34.140625 237.117188 C 34.910156 237.65625 35.792969 237.910156 36.667969 237.910156 C 38.058594 237.910156 39.421875 237.261719 40.289062 236.027344 C 41.679688 234.035156 41.199219 231.28125 39.199219 229.878906 " fill-opacity="1" fill-rule="nonzero"/><path fill="#3a4d6c" d="M 74.738281 244.046875 C 68.25 242.910156 61.980469 241.171875 56.113281 238.867188 C 53.847656 237.972656 51.289062 239.09375 50.394531 241.367188 C 49.503906 243.632812 50.621094 246.191406 52.886719 247.085938 C 59.308594 249.605469 66.144531 251.503906 73.214844 252.746094 C 73.46875 252.78125 73.730469 252.8125 73.984375 252.8125 C 76.082031 252.8125 77.945312 251.296875 78.320312 249.152344 C 78.742188 246.757812 77.136719 244.472656 74.738281 244.046875 " fill-opacity="1" fill-rule="nonzero"/><path fill="#3a4d6c" d="M 5.03125 167.1875 C 5.105469 167.195312 5.191406 167.195312 5.265625 167.195312 C 7.597656 167.195312 9.542969 165.371094 9.664062 163.019531 C 10.003906 156.675781 10.945312 150.207031 12.46875 143.792969 C 13.023438 141.414062 11.554688 139.046875 9.1875 138.480469 C 6.808594 137.925781 4.4375 139.394531 3.875 141.761719 C 2.238281 148.691406 1.222656 155.6875 0.867188 162.550781 C 0.722656 164.976562 2.59375 167.0625 5.03125 167.1875 " fill-opacity="1" fill-rule="nonzero"/><path fill="#3a4d6c" d="M 10.578125 182.296875 C 10.203125 179.886719 7.9375 178.222656 5.546875 178.609375 C 3.132812 178.976562 1.484375 181.222656 1.851562 183.628906 C 2.960938 190.824219 4.878906 197.714844 7.550781 204.125 C 8.253906 205.808594 9.890625 206.835938 11.621094 206.835938 C 12.1875 206.835938 12.757812 206.722656 13.324219 206.496094 C 15.570312 205.554688 16.632812 202.96875 15.691406 200.722656 C 13.296875 194.980469 11.574219 188.78125 10.578125 182.296875 " fill-opacity="1" fill-rule="nonzero"/><path fill="#3a4d6c" d="M 144.679688 42.269531 C 145.007812 42.269531 145.339844 42.230469 145.675781 42.15625 C 149.117188 41.367188 152.539062 40.613281 155.925781 39.910156 C 158.304688 39.402344 159.835938 37.070312 159.339844 34.683594 C 158.839844 32.292969 156.5 30.78125 154.109375 31.269531 C 150.667969 31.992188 147.191406 32.753906 143.691406 33.5625 C 141.3125 34.109375 139.839844 36.476562 140.382812 38.847656 C 140.855469 40.898438 142.667969 42.269531 144.679688 42.269531 " fill-opacity="1" fill-rule="nonzero"/></svg>