<svg xmlns="http://www.w3.org/2000/svg" xmlns:xlink="http://www.w3.org/1999/xlink" width="300" zoomAndPan="magnify" viewBox="0 0 224.87999 299.999988" height="400" preserveAspectRatio="xMidYMid meet" version="1.0"><defs><clipPath id="id1"><path d="M 3.378906 80 L 185 80 L 185 236 L 3.378906 236 Z M 3.378906 80 " clip-rule="nonzero"/></clipPath><clipPath id="id2"><path d="M 40 44.65625 L 223 44.65625 L 223 271.785156 L 40 271.785156 Z M 40 44.65625 " clip-rule="nonzero"/></clipPath></defs><g clip-path="url(#id1)"><path fill="#000000" d="M 159.933594 160.882812 C 158.523438 189.433594 133.894531 211.351562 105.316406 211.351562 L 77.019531 211.351562 L 77.019531 235.5 L 104.960938 235.5 C 146.8125 235.5 182.503906 203.015625 184.082031 161.1875 C 185.746094 117.214844 150.464844 80.910156 106.859375 80.910156 L 3.4375 80.910156 L 3.4375 235.5 C 16.769531 235.5 27.578125 224.6875 27.578125 211.351562 L 27.578125 105.058594 L 106.859375 105.058594 C 137.046875 105.058594 161.441406 130.367188 159.933594 160.882812 " fill-opacity="1" fill-rule="nonzero"/></g><g clip-path="url(#id2)"><path fill="#874be3" d="M 106.644531 44.648438 L 40.808594 44.648438 C 40.808594 57.980469 51.617188 68.792969 64.949219 68.792969 L 106.863281 68.792969 C 155.273438 68.792969 196.5625 106.367188 198.394531 154.75 C 200.320312 205.617188 159.5 247.617188 109.058594 247.617188 L 64.949219 247.617188 L 64.949219 117.460938 L 40.808594 117.460938 L 40.808594 271.761719 L 109.058594 271.761719 C 172.808594 271.761719 224.457031 218.941406 222.550781 154.765625 C 220.714844 93 168.425781 44.648438 106.644531 44.648438 " fill-opacity="1" fill-rule="nonzero"/></g></svg>